<svg width="61" height="45" viewBox="0 0 61 45" fill="none" xmlns="http://www.w3.org/2000/svg">
<path d="M44.6105 16.6252L32.748 1.59189C32.2334 0.950228 31.3667 0.629395 30.5 0.629395C29.6334 0.629395 28.7667 0.950228 28.2521 1.61481L16.3896 16.6252H3.41671C1.92712 16.6252 0.708374 17.6565 0.708374 18.9169C0.708374 19.1231 0.735457 19.3294 0.816707 19.5356L7.69587 40.7794C8.31879 42.7044 10.4042 44.1252 12.8959 44.1252H48.1042C50.5959 44.1252 52.6813 42.7044 53.3313 40.7794L60.2105 19.5356L60.2917 18.9169C60.2917 17.6565 59.073 16.6252 57.5834 16.6252H44.6105ZM22.375 16.6252L30.5 6.54189L38.625 16.6252H22.375ZM30.5 34.9586C27.5209 34.9586 25.0834 32.8961 25.0834 30.3752C25.0834 27.8544 27.5209 25.7919 30.5 25.7919C33.4792 25.7919 35.9167 27.8544 35.9167 30.3752C35.9167 32.8961 33.4792 34.9586 30.5 34.9586Z" fill="white"/>
</svg>
